<?xml version="1.0" encoding="UTF-8" standalone="no"?>
<svg
   id="visual"
   viewBox="0 0 900 600"
   width="900"
   height="600"
   version="1.1"
   sodipodi:docname="layer-waves.svg"
   inkscape:version="1.2 (dc2aedaf03, 2022-05-15)"
   xmlns:inkscape="http://www.inkscape.org/namespaces/inkscape"
   xmlns:sodipodi="http://sodipodi.sourceforge.net/DTD/sodipodi-0.dtd"
   xmlns="http://www.w3.org/2000/svg"
   xmlns:svg="http://www.w3.org/2000/svg">
  <defs
     id="defs17" />
  <sodipodi:namedview
     id="namedview15"
     pagecolor="#505050"
     bordercolor="#eeeeee"
     borderopacity="1"
     inkscape:showpageshadow="0"
     inkscape:pageopacity="0"
     inkscape:pagecheckerboard="0"
     inkscape:deskcolor="#505050"
     showgrid="false"
     inkscape:zoom="0.39333333"
     inkscape:cx="512.28814"
     inkscape:cy="533.89831"
     inkscape:window-width="1366"
     inkscape:window-height="745"
     inkscape:window-x="-8"
     inkscape:window-y="-8"
     inkscape:window-maximized="1"
     inkscape:current-layer="visual" />
  <path
     d="m 0,221.61017 11.5,0.8 c 11.5,0.9 34.5,2.5 57.5,-3 23,-5.5 46,-18.1 69.2,-24.8 23.1,-6.7 46.5,-7.3 69.6,-1.3 23.2,6 46.2,18.6 69.2,25.5 23,6.8 46,7.8 69,11.6 23,3.9 46,10.5 69.2,13.2 23.1,2.7 46.5,1.3 69.6,-7.2 23.2,-8.5 46.2,-24.1 69.2,-28.5 23,-4.3 46,2.7 69,4.5 23,1.9 46,-1.5 69.2,1.5 23.1,3 46.5,12.4 69.6,16.5 23.2,4.2 46.2,3.2 69.2,5 23,1.9 46,6.5 57.5,8.9 l 11.5,2.3 v 151 h -11.5 c -11.5,0 -34.5,0 -57.5,0 -23,0 -46,0 -69.2,0 -23.1,0 -46.5,0 -69.6,0 -23.2,0 -46.2,0 -69.2,0 -23,0 -46,0 -69,0 -23,0 -46,0 -69.2,0 -23.1,0 -46.5,0 -69.6,0 -23.2,0 -46.2,0 -69.2,0 -23,0 -46,0 -69,0 -23,0 -46,0 -69.2,0 -23.1,0 -46.5,0 -69.6,0 -23.2,0 -46.2,0 -69.2,0 -23,0 -46,0 -57.5,0 H 0 Z"
     fill="#e4ff45"
     id="path2"
     style="display:inline" />
  <path
     d="m 0,268.61017 11.5,-4 c 11.5,-4 34.5,-12 57.5,-20.8 23,-8.9 46,-18.5 69.2,-14.9 23.1,3.7 46.5,20.7 69.6,23 23.2,2.4 46.2,-10 69.2,-19 23,-9 46,-14.6 69,-11.5 23,3.2 46,15.2 69.2,25 23.1,9.9 46.5,17.5 69.6,16 23.2,-1.5 46.2,-12.1 69.2,-15.1 23,-3 46,1.6 69,1 23,-0.7 46,-6.7 69.2,-3.7 23.1,3 46.5,15 69.6,15.5 23.2,0.5 46.2,-10.5 69.2,-13.5 23,-3 46,2 57.5,4.5 l 11.5,2.5 v 144 h -11.5 c -11.5,0 -34.5,0 -57.5,0 -23,0 -46,0 -69.2,0 -23.1,0 -46.5,0 -69.6,0 -23.2,0 -46.2,0 -69.2,0 -23,0 -46,0 -69,0 -23,0 -46,0 -69.2,0 -23.1,0 -46.5,0 -69.6,0 -23.2,0 -46.2,0 -69.2,0 -23,0 -46,0 -69,0 -23,0 -46,0 -69.2,0 -23.1,0 -46.5,0 -69.6,0 -23.2,0 -46.2,0 -69.2,0 -23,0 -46,0 -57.5,0 H 0 Z"
     fill="#a9c92b"
     id="path4" />
  <path
     d="m 0,272.61017 11.5,-3.3 c 11.5,-3.4 34.5,-10 57.5,-5 23,5 46,21.6 69.2,20.3 23.1,-1.3 46.5,-20.7 69.6,-28.8 23.2,-8.2 46.2,-5.2 69.2,-3.7 23,1.5 46,1.5 69,7.2 23,5.6 46,17 69.2,16.5 23.1,-0.5 46.5,-12.9 69.6,-14.4 23.2,-1.5 46.2,7.9 69.2,8.2 23,0.3 46,-8.3 69,-7.8 23,0.5 46,10.1 69.2,10.8 23.1,0.7 46.5,-7.7 69.6,-7.5 23.2,0.2 46.2,8.8 69.2,13.8 23,5 46,6.4 57.5,7 l 11.5,0.7 v 111 h -11.5 c -11.5,0 -34.5,0 -57.5,0 -23,0 -46,0 -69.2,0 -23.1,0 -46.5,0 -69.6,0 -23.2,0 -46.2,0 -69.2,0 -23,0 -46,0 -69,0 -23,0 -46,0 -69.2,0 -23.1,0 -46.5,0 -69.6,0 -23.2,0 -46.2,0 -69.2,0 -23,0 -46,0 -69,0 -23,0 -46,0 -69.2,0 -23.1,0 -46.5,0 -69.6,0 -23.2,0 -46.2,0 -69.2,0 -23,0 -46,0 -57.5,0 H 0 Z"
     fill="#729610"
     id="path6" />
  <path
     d="m 0,290.61017 11.5,5.2 c 11.5,5.1 34.5,15.5 57.5,20.1 23,4.7 46,3.7 69.2,3.9 23.1,0.1 46.5,1.5 69.6,-2 23.2,-3.5 46.2,-11.9 69.2,-16.7 23,-4.8 46,-6.2 69,-4.7 23,1.5 46,5.9 69.2,10 23.1,4.2 46.5,8.2 69.6,5.7 23.2,-2.5 46.2,-11.5 69.2,-13.7 23,-2.1 46,2.5 69,4.9 23,2.3 46,2.3 69.2,5 23.1,2.6 46.5,8 69.6,10.6 23.2,2.7 46.2,2.7 69.2,-3.6 23,-6.4 46,-19 57.5,-25.4 l 11.5,-6.3 v 114 h -11.5 c -11.5,0 -34.5,0 -57.5,0 -23,0 -46,0 -69.2,0 -23.1,0 -46.5,0 -69.6,0 -23.2,0 -46.2,0 -69.2,0 -23,0 -46,0 -69,0 -23,0 -46,0 -69.2,0 -23.1,0 -46.5,0 -69.6,0 -23.2,0 -46.2,0 -69.2,0 -23,0 -46,0 -69,0 -23,0 -46,0 -69.2,0 -23.1,0 -46.5,0 -69.6,0 -23.2,0 -46.2,0 -69.2,0 -23,0 -46,0 -57.5,0 H 0 Z"
     fill="#406500"
     id="path8" />
  <path
     d="m 0,335.61017 11.5,-2.5 c 11.5,-2.5 34.5,-7.5 57.5,-7.5 23,0 46,5 69.2,5.2 23.1,0.1 46.5,-4.5 69.6,-2.2 23.2,2.3 46.2,11.7 69.2,10.3 23,-1.3 46,-13.3 69,-15.5 23,-2.1 46,5.5 69.2,10.4 23.1,4.8 46.5,6.8 69.6,3.1 23.2,-3.6 46.2,-13 69.2,-16.1 23,-3.2 46,-0.2 69,4.6 23,4.9 46,11.5 69.2,14.5 23.1,3 46.5,2.4 69.6,1.5 23.2,-0.8 46.2,-1.8 69.2,-3.1 23,-1.4 46,-3 57.5,-3.9 l 11.5,-0.8 v 64 h -11.5 c -11.5,0 -34.5,0 -57.5,0 -23,0 -46,0 -69.2,0 -23.1,0 -46.5,0 -69.6,0 -23.2,0 -46.2,0 -69.2,0 -23,0 -46,0 -69,0 -23,0 -46,0 -69.2,0 -23.1,0 -46.5,0 -69.6,0 -23.2,0 -46.2,0 -69.2,0 -23,0 -46,0 -69,0 -23,0 -46,0 -69.2,0 -23.1,0 -46.5,0 -69.6,0 -23.2,0 -46.2,0 -69.2,0 -23,0 -46,0 -57.5,0 H 0 Z"
     fill="#193700"
     id="path10" />
  <path
     d="M -0.89886455,383.90222 H 10.601135 c 11.5,0 34.5,0 57.5,-0.5 23,-0.5 46.000005,-1.5 69.200005,-3.8 23.1,-2.4 46.5,-6 69.6,-5 23.2,1 46.2,6.6 69.2,5.8 23,-0.8 46,-8.2 69,-8.8 23,-0.7 46,5.3 69.2,7.5 23.1,2.1 46.5,0.5 69.6,-0.2 23.2,-0.7 46.2,-0.3 69.2,-3.2 23,-2.8 46,-8.8 69,-13.8 23,-5 46,-9 69.2,-10 23.1,-1 46.5,1 69.6,4.3 23.2,3.4 46.2,8 69.2,9.7 23,1.7 46,0.3 57.5,-0.3 l 11.5,-0.7 v 39 h -11.5 c -11.5,0 -34.5,0 -57.5,0 -23,0 -46,0 -69.2,0 -23.1,0 -46.5,0 -69.6,0 -23.2,0 -46.2,0 -69.2,0 -23,0 -46,0 -69,0 -23,0 -46,0 -69.2,0 -23.1,0 -46.5,0 -69.6,0 -23.2,0 -46.2,0 -69.2,0 -23,0 -46,0 -69,0 -23,0 -46,0 -69.2,0 -23.1,0 -46.5,0 -69.6,0 -23.2,0 -46.200005,0 -69.200005,0 -23,0 -46,0 -57.5,0 H -0.89886455 Z"
     fill="#000000"
     id="path12"
     style="display:inline" />
</svg>
